<?xml version="1.0" encoding="UTF-8"?>
<svg width="24px" height="24px" viewBox="0 0 24 24" version="1.1" xmlns="http://www.w3.org/2000/svg">
    <g stroke="none" stroke-width="1" fill="none" fill-rule="evenodd">
        <path d="M12,2 C8.13,2 5,5.13 5,9 C5,11.38 6.19,13.47 8,14.74 L8,21 L16,21 L16,14.74 C17.81,13.47 19,11.38 19,9 C19,5.13 15.87,2 12,2 Z M14,19 L10,19 L10,14.5 L14,14.5 L14,19 Z M16.5,9 C16.5,11.21 14.71,13 12.5,13 C10.29,13 8.5,11.21 8.5,9 C8.5,6.79 10.29,5 12.5,5 C14.71,5 16.5,6.79 16.5,9 Z" fill="#3B82F6" fill-rule="nonzero"></path>
    </g>
</svg> 